<svg xmlns="http://www.w3.org/2000/svg" width="200" height="66.667" viewBox="0 0 200 66.667">
  <g id="logo" transform="translate(-18.47 -0.181)">
    <path id="Pfad_1" data-name="Pfad 1" d="M46.815,10.594H216.437L211.644,43.7,45.617,62.8h-8.9Z" transform="translate(-8.574 -4.893)" fill="#05171d"/>
    <path id="Pfad_2" data-name="Pfad 2" d="M192.852,53.507a10.1,10.1,0,0,0-3.816,1.583l-1.219.73-1.745,7.186,2.154-.143a5.6,5.6,0,0,0,5.566-4.636l.657-2.706C194.811,54.026,194.322,53.41,192.852,53.507Z" transform="translate(-81.375 -26.106)" fill="#ef7d00"/>
    <path id="Pfad_3" data-name="Pfad 3" d="M154.833,55.809a10.094,10.094,0,0,0-3.814,1.583l-1.221.73-1.745,7.186,2.154-.143a5.6,5.6,0,0,0,5.566-4.636l.657-2.706C156.792,56.328,156.3,55.712,154.833,55.809Z" transform="translate(-62.916 -27.234)" fill="#ef7d00"/>
    <path id="Pfad_4" data-name="Pfad 4" d="M71.04,48.348l-4.638.224-3.578,15.7,3.721-.181c4.029-.194,7.661-1.728,8.671-7.395L75.7,54.55C76.626,50.5,75.069,48.152,71.04,48.348Z" transform="translate(-20.842 -23.695)" fill="#ef7d00"/>
    <path id="Pfad_5" data-name="Pfad 5" d="M115.323,58.3c-2.666.176-4.019,1.459-4.847,4.862-.817,3.366-.052,4.512,2.614,4.336s4.056-1.461,4.873-4.829C118.789,59.264,117.99,58.12,115.323,58.3Z" transform="translate(-44.518 -28.442)" fill="#ef7d00"/>
    <path id="Pfad_6" data-name="Pfad 6" d="M282.722,52.674l-.657,2.708c-.362,1.492.127,2.109,1.6,2.013a10.112,10.112,0,0,0,3.816-1.583l1.219-.73,1.745-7.186-2.154.141A5.578,5.578,0,0,0,282.722,52.674Z" transform="translate(-127.926 -23.364)" fill="#ef7d00"/>
    <path id="Pfad_7" data-name="Pfad 7" d="M321.655,50.363,321,53.071c-.362,1.492.127,2.109,1.6,2.013a10.09,10.09,0,0,0,3.816-1.583l1.219-.73,1.745-7.186-2.153.141A5.579,5.579,0,0,0,321.655,50.363Z" transform="translate(-146.829 -22.232)" fill="#ef7d00"/>
    <path id="Pfad_8" data-name="Pfad 8" d="M37.738,4.165,23.856,66.258,208.779,48.172l9.962-44.007Zm8.655,42.762-9.316.449,5.741-25.04,10.207-.49c8.058-.388,10.388,5.852,9.488,10.108l-.72,3.139C59.725,43.99,54.685,46.529,46.393,46.926ZM69.9,45.759c-5.942.388-8.746-1.771-7.028-8.81,1.6-6.57,5.694-9.674,11.635-10.063,6.24-.409,8.658,2.27,7.053,8.84C79.846,42.765,76.144,45.35,69.9,45.759Zm19.317-1.426-2.589.168-1.615,6.234-5.753.565L85.4,26.54l5.709-.373-.605,2.48,1.515-.99a11.079,11.079,0,0,1,5.5-2.173c3.783-.249,5.293,1.863,4.368,5.65l-.891,3.654a12.873,12.873,0,0,1-11.77,9.545Zm19.57-1.178-2.589.17-1.4,5.417-5.762.567,5.933-23.947,5.709-.373-.605,2.48,1.515-.99a11.079,11.079,0,0,1,5.5-2.173c3.783-.247,5.293,1.863,4.368,5.65l-.891,3.654a12.873,12.873,0,0,1-11.77,9.545Zm28.165-14.762a32.147,32.147,0,0,0-4.806-.161c-.928.061-2.988.2-3.208,1.1-.2.8.692.911,1.505,1.056l2.359.373c2.391.372,4.6,1.513,3.736,5.033-1.185,4.86-5.887,6.323-10.667,6.636a26.256,26.256,0,0,1-5.944-.271l1.179-4.828.265-.017a30.008,30.008,0,0,0,5.687.256c.9-.059,3.22-.212,3.473-1.251.188-.77-.294-.937-1.141-1.08l-2.69-.484c-3.321-.573-4.375-2.418-3.769-4.9,1.023-4.191,5.457-6.163,10.535-6.494a26.658,26.658,0,0,1,4.652.145Zm11.426,12.453L145,41.067c-4.647.3-6.928-1.856-5.775-6.582l1.6-6.536-1.781.116,1.155-4.727,1.779-.116,1.155-4.857,5.709-.244-1.155,4.727,4.647-.3-1.153,4.727-4.647.3L145.25,32.8c-.639,2.615-.129,3.6,2.461,3.434l1.826-.119Zm13.248-.687.605-2.48-1.515.989a11.363,11.363,0,0,1-5.528,2.176c-3.751.246-5.261-1.865-4.336-5.654l.891-3.654a12.872,12.872,0,0,1,11.77-9.543l8.3-.543-4.476,18.336Zm20.04-1.183.605-2.48-1.515.989a11.363,11.363,0,0,1-5.528,2.176c-3.751.246-5.261-1.867-4.336-5.654l.891-3.654a12.872,12.872,0,0,1,11.772-9.543l2.589-.17,1.793-6.935,5.577-.242L187.379,38.6Zm22.577-14.758-4.647.3-1.277,5.228c-.639,2.615-.129,3.6,2.461,3.436l1.825-.119-1.153,4.725-3.386.222c-4.647.3-6.928-1.855-5.775-6.582l1.6-6.536-1.781.116,1.155-4.725,1.779-.118,1.153-4.857,5.709-.242-1.153,4.725,4.647-.3Z" transform="translate(-2.531 -1.872)" fill="#ef7d00"/>
    <path id="Pfad_9" data-name="Pfad 9" d="M35.652,2.738H215.244l-9.969,43.085L21.759,63.952ZM33.6.181,18.47,66.848,207.361,48.187,218.47.181Z" transform="translate(0)" fill="#05171d"/>
  </g>
</svg>
