<?xml version="1.0" encoding="utf-8"?>
<!-- Generator: Adobe Illustrator 16.0.0, SVG Export Plug-In . SVG Version: 6.00 Build 0)  -->
<!DOCTYPE svg PUBLIC "-//W3C//DTD SVG 1.1//EN" "http://www.w3.org/Graphics/SVG/1.1/DTD/svg11.dtd">
<svg version="1.1" id="Layer_1" xmlns="http://www.w3.org/2000/svg" xmlns:xlink="http://www.w3.org/1999/xlink" x="0px" y="0px"
	 width="248.303px" height="47.705px" viewBox="0 0 248.303 47.705" enable-background="new 0 0 248.303 47.705"
	 xml:space="preserve">
<path d="M63.601,38.457v-2.334h4.063c0.442,0,0.765,0,0.966,0s0.321,0,0.402,0.041c0.081,0,0.121,0,0.201,0.04
	c0.121,0.08,0.242,0.161,0.322,0.322c0.041,0.16,0.081,0.4,0.081,0.724c0,0.281-0.04,0.522-0.081,0.685
	c-0.04,0.16-0.12,0.281-0.241,0.321c-0.04,0.04-0.121,0.08-0.201,0.12c-0.04,0-0.201,0.041-0.402,0.041c-0.2,0-0.563,0-1.046,0.04
	 M60.745,43.204h2.856V40.79h4.104c0.563,0,0.965,0.041,1.167,0.081c0.201,0,0.362,0.08,0.442,0.201
	c0.081,0.12,0.161,0.28,0.201,0.521c0.04,0.201,0.081,0.604,0.081,1.128v0.481h2.815v-0.886c0.04-0.725,0-1.246-0.081-1.648
	c-0.081-0.361-0.242-0.645-0.482-0.805c-0.241-0.161-0.604-0.281-1.086-0.322c0.281-0.04,0.482-0.08,0.644-0.16
	c0.201-0.04,0.322-0.121,0.442-0.242c0.281-0.16,0.441-0.441,0.522-0.765c0.121-0.36,0.161-0.885,0.161-1.567
	c0-0.806-0.081-1.408-0.201-1.812c-0.161-0.402-0.401-0.685-0.764-0.886c-0.121-0.08-0.242-0.16-0.403-0.2
	c-0.121-0.081-0.281-0.121-0.522-0.121c-0.241-0.04-0.563-0.04-1.046-0.04c-0.442,0-1.086,0-1.892,0h-6.96L60.745,43.204
	L60.745,43.204z"/>
<polyline points="73.498,33.75 73.498,43.204 84.038,43.204 84.038,40.951 76.354,40.951 76.354,39.422 83.596,39.422 83.596,37.33 
	76.354,37.33 76.354,35.962 83.998,35.962 83.998,33.75 "/>
<path d="M93.935,39.542c0.041,0.482-0.04,0.805-0.121,1.006c-0.121,0.201-0.402,0.322-0.845,0.362
	c-0.483,0.04-1.207,0.081-2.254,0.081c-1.006,0-1.689-0.041-2.132-0.121c-0.442-0.081-0.724-0.282-0.805-0.645
	c-0.121-0.322-0.161-0.926-0.161-1.689c0-0.725,0.04-1.247,0.121-1.568c0.081-0.361,0.202-0.604,0.362-0.725
	c0.121-0.121,0.361-0.16,0.724-0.201c0.362-0.08,1.006-0.08,1.891-0.08c0.886,0,1.569,0.04,2.012,0.08
	c0.482,0.041,0.765,0.121,0.845,0.201c0.081,0.04,0.121,0.16,0.161,0.24c0.04,0.121,0.04,0.363,0.081,0.646h2.855v-0.483
	c0-0.724-0.081-1.326-0.241-1.729c-0.161-0.402-0.442-0.686-0.846-0.886c-0.201-0.12-0.482-0.201-0.764-0.281
	c-0.322-0.04-0.724-0.08-1.248-0.121c-0.523-0.04-1.207-0.04-2.052-0.04c-1.609,0-2.896,0.04-3.782,0.121
	c-0.885,0.08-1.529,0.241-1.891,0.441c-0.402,0.201-0.685,0.523-0.846,0.967c-0.081,0.24-0.161,0.604-0.201,1.126
	c-0.039,0.481-0.039,1.247-0.039,2.293c0,0.604,0,1.087,0,1.489c0.039,0.401,0.039,0.724,0.079,0.925
	c0.04,0.483,0.161,0.845,0.282,1.167c0.161,0.281,0.402,0.523,0.725,0.684c0.24,0.161,0.563,0.241,0.965,0.322
	c0.442,0.08,1.006,0.16,1.771,0.201c0.725,0,1.69,0.04,2.938,0.04c1.046,0,1.851-0.04,2.455-0.081
	c0.604-0.04,1.086-0.12,1.447-0.241c0.523-0.16,0.886-0.442,1.127-0.845c0.201-0.402,0.321-1.006,0.321-1.729
	c0-0.079,0-0.161,0-0.321c0-0.121-0.04-0.321-0.04-0.604"/>
<polyline points="96.912,33.75 102.344,39.865 102.344,43.204 105.32,43.204 105.32,39.865 110.51,33.75 106.729,33.75 
	103.792,37.531 100.694,33.75 "/>
<path d="M119.764,39.542c0,0.482-0.041,0.805-0.161,1.006c-0.081,0.201-0.362,0.322-0.846,0.362
	c-0.441,0.04-1.206,0.081-2.212,0.081c-1.005,0-1.729-0.041-2.173-0.121c-0.441-0.081-0.684-0.282-0.804-0.645
	c-0.081-0.322-0.121-0.926-0.121-1.689c0-0.725,0.04-1.247,0.08-1.568c0.081-0.361,0.202-0.604,0.362-0.725
	c0.121-0.121,0.361-0.16,0.765-0.201c0.362-0.08,0.965-0.08,1.851-0.08c0.926,0,1.609,0.04,2.053,0.08
	c0.441,0.041,0.724,0.121,0.845,0.201c0.081,0.04,0.121,0.16,0.161,0.24c0,0.121,0.04,0.363,0.04,0.646h2.896v-0.483
	c0-0.724-0.081-1.326-0.241-1.729c-0.161-0.402-0.442-0.686-0.846-0.886c-0.201-0.12-0.482-0.201-0.805-0.281
	c-0.282-0.04-0.724-0.08-1.248-0.121c-0.523-0.04-1.207-0.04-2.011-0.04c-1.649,0-2.897,0.04-3.782,0.121
	c-0.885,0.08-1.529,0.241-1.931,0.441c-0.402,0.201-0.645,0.523-0.806,0.967c-0.121,0.24-0.161,0.604-0.201,1.126
	c-0.04,0.481-0.081,1.247-0.081,2.293c0,0.604,0.041,1.087,0.041,1.489c0,0.401,0.04,0.724,0.04,0.925
	c0.041,0.483,0.161,0.845,0.322,1.167c0.161,0.281,0.402,0.523,0.725,0.684c0.241,0.161,0.563,0.241,0.966,0.322
	c0.401,0.08,1.006,0.16,1.729,0.201c0.766,0,1.73,0.04,2.938,0.04c1.046,0,1.851-0.04,2.454-0.081
	c0.604-0.04,1.086-0.12,1.447-0.241c0.523-0.16,0.926-0.442,1.126-0.845c0.241-0.402,0.362-1.006,0.322-1.729
	c0-0.079,0-0.161,0-0.321c0-0.121,0-0.321,0-0.604"/>
<polyline points="123.666,33.75 123.666,43.204 133.442,43.204 133.442,40.79 126.723,40.79 126.723,33.75 "/>
<rect x="134.085" y="33.75" width="3.059" height="9.454"/>
<polyline points="138.471,33.75 138.471,43.204 141.408,43.204 141.328,36.123 141.649,36.123 146.637,43.204 151.667,43.204 
	151.667,33.75 148.73,33.75 148.77,40.79 148.489,40.79 143.541,33.75 "/>
<path d="M158.708,37.853v1.892h3.821v0.241c0,0.361-0.04,0.604-0.16,0.765c-0.121,0.161-0.442,0.242-0.926,0.281
	c-0.482,0.041-1.287,0.041-2.373,0.041l-1.69-0.041c-0.401,0-0.684,0-0.885-0.039c-0.161-0.041-0.322-0.121-0.441-0.202
	c-0.161-0.12-0.241-0.321-0.322-0.684c-0.04-0.322-0.08-0.885-0.08-1.649c0-0.806,0.04-1.408,0.161-1.771
	c0.08-0.321,0.4-0.563,0.885-0.645c0.482-0.08,1.287-0.08,2.374-0.08c1.086,0,1.81,0,2.293,0.04c0.442,0.04,0.724,0.12,0.845,0.201
	c0.08,0.08,0.12,0.161,0.161,0.241c0.04,0.121,0.04,0.322,0.04,0.563h2.896c0-0.684-0.04-1.207-0.121-1.568
	c-0.08-0.362-0.201-0.645-0.402-0.886s-0.482-0.442-0.925-0.563c-0.402-0.161-0.966-0.241-1.69-0.321
	c-0.724-0.041-1.688-0.081-2.854-0.081c-1.489,0-2.696,0.04-3.581,0.121c-0.885,0.08-1.568,0.281-1.973,0.604
	c-0.441,0.28-0.684,0.764-0.805,1.408c-0.12,0.644-0.201,1.487-0.16,2.613c0,1.007,0,1.811,0.08,2.374
	c0.04,0.563,0.121,1.006,0.282,1.287c0.12,0.282,0.361,0.522,0.603,0.685c0.282,0.201,0.604,0.321,0.967,0.402
	c0.361,0.12,0.885,0.16,1.528,0.2c0.645,0.041,1.488,0.081,2.574,0.081c0.846,0,1.569-0.04,2.092-0.04
	c0.563,0,1.046-0.041,1.408-0.081s0.726-0.08,1.046-0.16c0.563-0.081,1.006-0.322,1.288-0.645c0.321-0.321,0.522-0.765,0.563-1.328
	c0-0.16,0.041-0.441,0.041-0.764c0-0.363,0.04-0.765,0.04-1.166c0-0.402,0-0.766,0-1.088v-0.24"/>
<polyline points="165.949,33.75 165.949,36.164 170.173,36.164 170.173,43.204 173.191,43.204 173.191,36.164 177.415,36.164 
	177.415,33.75 "/>
<polyline points="178.098,33.75 178.098,43.204 188.639,43.204 188.639,40.951 180.915,40.951 180.915,39.422 188.197,39.422 
	188.197,37.33 180.915,37.33 180.915,35.962 188.559,35.962 188.559,33.75 "/>
<path d="M198.496,39.542c0.041,0.482,0,0.805-0.12,1.006c-0.121,0.201-0.401,0.322-0.846,0.362c-0.442,0.04-1.206,0.081-2.252,0.081
	c-0.966,0-1.69-0.041-2.133-0.121c-0.442-0.081-0.726-0.282-0.806-0.645c-0.12-0.322-0.16-0.926-0.12-1.689
	c0-0.725,0-1.247,0.081-1.568c0.079-0.361,0.2-0.604,0.36-0.725c0.121-0.121,0.362-0.16,0.726-0.201
	c0.401-0.08,1.006-0.08,1.892-0.08c0.885,0,1.568,0.04,2.051,0.08c0.443,0.041,0.726,0.121,0.806,0.201
	c0.08,0.04,0.16,0.16,0.16,0.24c0.04,0.121,0.081,0.363,0.081,0.646h2.896v-0.483c0-0.724-0.081-1.326-0.241-1.729
	c-0.202-0.402-0.483-0.686-0.886-0.886c-0.201-0.12-0.442-0.201-0.766-0.281c-0.32-0.04-0.724-0.08-1.247-0.121
	c-0.521-0.04-1.205-0.04-2.052-0.04c-1.607,0-2.855,0.04-3.741,0.121c-0.885,0.08-1.527,0.241-1.931,0.441
	c-0.403,0.201-0.685,0.523-0.805,0.967c-0.121,0.24-0.201,0.604-0.242,1.126c-0.04,0.481-0.04,1.247-0.04,2.293
	c0,0.604,0,1.087,0.04,1.489c0,0.401,0,0.724,0.041,0.925c0.04,0.483,0.161,0.845,0.321,1.167c0.161,0.281,0.401,0.523,0.685,0.684
	c0.241,0.161,0.563,0.241,1.006,0.322c0.401,0.08,0.965,0.16,1.729,0.201c0.725,0,1.729,0.04,2.937,0.04
	c1.046,0,1.852-0.04,2.455-0.081c0.604-0.04,1.086-0.12,1.447-0.241c0.522-0.16,0.886-0.442,1.127-0.845
	c0.241-0.403,0.321-1.006,0.321-1.729c0-0.079,0-0.161,0-0.321c0-0.121,0-0.321-0.04-0.604"/>
<polyline points="202.438,33.75 202.438,43.204 205.456,43.204 205.456,39.784 211.973,39.784 211.973,43.204 215.031,43.204 
	215.031,33.75 211.973,33.75 211.973,37.129 205.456,37.129 205.456,33.75 "/>
<polyline points="216.358,33.75 216.358,43.204 219.295,43.204 219.215,36.123 219.537,36.123 224.525,43.204 229.554,43.204 
	229.554,33.75 226.617,33.75 226.658,40.79 226.376,40.79 221.427,33.75 "/>
<rect x="230.881" y="33.75" width="3.019" height="9.454"/>
<polyline points="235.227,33.75 235.227,43.204 238.124,43.204 238.124,39.583 239.692,39.583 243.958,43.204 248.302,43.204 
	242.388,38.375 247.859,33.669 243.434,33.669 239.692,37.169 238.124,37.169 238.124,33.75 "/>
<polyline fill="#E30613" points="60.745,0.277 60.745,21.398 67.463,21.398 67.463,13.795 82.027,13.795 82.027,21.398 
	88.745,21.398 88.745,0.277 82.027,0.277 82.027,7.84 67.463,7.84 67.463,0.277 "/>
<path fill="#E30613" d="M110.591,13.191h-9.413l4.063-8.006h1.288 M114.654,21.398h7.322L110.913,0.277h-10.018L89.711,21.398h7.362
	l1.81-3.581h13.961L114.654,21.398z"/>
<polyline fill="#E30613" points="122.901,0.277 122.901,21.398 129.217,21.398 129.057,5.587 130.223,5.587 138.149,21.398 
	143.5,21.398 151.465,5.587 152.552,5.587 152.391,21.398 158.708,21.398 158.708,0.277 147.121,0.277 140.804,13.996 
	134.569,0.277 "/>
<polyline fill="#E30613" points="161.644,0.277 161.644,21.398 167.96,21.398 167.799,5.587 168.966,5.587 176.891,21.398 
	182.242,21.398 190.208,5.587 191.294,5.587 191.133,21.398 197.45,21.398 197.45,0.277 185.863,0.277 179.587,13.996 
	173.311,0.277 "/>
<polyline fill="#E30613" points="200.386,0.277 200.386,21.398 223.881,21.398 223.881,16.33 206.744,16.33 206.744,12.99 
	222.916,12.99 222.916,8.323 206.744,8.323 206.744,5.266 223.761,5.266 223.761,0.277 "/>
<polyline fill="#E30613" points="225.893,0.277 225.893,21.398 247.658,21.398 247.658,16.007 232.652,16.007 232.652,0.277 "/>
<rect x="60.745" y="26.325" width="186.941" height="2.218"/>
<polyline fill="#FFED00" points="0.559,0.559 52.538,0.559 52.538,27.433 37.048,47.146 16.208,47.146 0.559,27.433 "/>
<polygon fill="none" stroke="#000000" stroke-width="1.1174" stroke-miterlimit="2.6131" points="0.559,0.559 52.538,0.559 
	52.538,27.433 37.048,47.146 16.208,47.146 0.559,27.433 "/>
<path d="M39.784,5.427c-3.903,0-6.196,4.023-7.363,7.161c-1.568-0.563-3.581-0.885-5.874-0.925c-2.293,0.04-4.305,0.362-5.874,0.925
	c-1.167-3.138-3.46-7.161-7.361-7.161c-4.667-0.04-8.207,5.511-8.207,12.793c0,3.902,1.608,8.288,4.104,10.541
	c1.006,0.885,2.132,1.488,3.339,1.528c1.449,0,2.293-0.726,3.059-1.812c0.161-0.201,0-0.522-0.201-0.522
	c-1.166-0.04-1.971-0.321-3.178-1.729c-0.08-0.08-0.161-0.24-0.241-0.361c1.609-0.522,3.098-1.407,4.707-2.011
	c0.322,1.73,1.569,5.431,2.494,8.046c0.844,2.453,1.648,4.787,2.855,7.16c0.362,0.766,0.846,1.528,1.408,2.133
	c0.684,0.685,1.488,0.966,2.213,1.045c0.483,0.041,1.207,0.041,1.729,0c0.724-0.039,1.528-0.32,2.253-1.045
	c0.563-0.604,1.006-1.367,1.408-2.133c1.207-2.373,2.011-4.707,2.855-7.16c0.926-2.615,2.173-6.316,2.495-8.046
	c1.609,0.603,3.058,1.489,4.707,2.011c-0.08,0.121-0.16,0.281-0.241,0.361c-1.207,1.408-2.011,1.689-3.178,1.729
	c-0.201,0-0.362,0.321-0.201,0.522c0.765,1.086,1.61,1.812,3.058,1.812c1.207-0.04,2.333-0.644,3.34-1.528
	c2.494-2.253,4.104-6.639,4.104-10.541C47.991,10.939,44.451,5.387,39.784,5.427z M10.737,22.968
	c-0.886-3.621-0.041-7.725,2.172-9.696c0.483,0.885,1.569,3.018,2.575,4.989C13.714,19.025,12.145,20.835,10.737,22.968z
	 M42.359,22.968c-1.408-2.133-3.019-3.943-4.748-4.707c1.006-1.971,2.092-4.104,2.575-4.989
	C42.359,15.243,43.244,19.347,42.359,22.968z"/>
<path fill="#FFFFFF" d="M12.547,12.628c-0.604-1.005-1.006-1.689-2.374-1.77c-1.528,0-2.977,2.052-3.861,4.626
	c-0.121,0.402-0.442,2.052-0.402,2.897c0.041,0.965,0.121,1.891,0.282,2.816c0.282,1.569,0.845,3.218,1.688,4.665
	c0.443,0.726,0.887,1.328,1.489,1.973c0.845,0.885,1.69,1.448,2.495,1.609c1.167,0.281,2.253-0.201,2.695-0.846
	c-1.167-0.201-2.293-0.966-3.339-2.533c-0.685,0.039-1.047,0.119-1.689,0.119c-0.402,0.041-0.805-0.201-0.563-0.644
	c0.2-0.401,0.765-1.126,1.206-1.811c-0.401-1.086-0.522-2.253-0.522-3.782c0-0.523,0.04-1.046,0.081-1.569
	C10.094,15.444,11.501,13.473,12.547,12.628"/>
<path fill="#FFFFFF" d="M15.847,18.944c0.08,0.201,0.2,0.322,0.28,0.483c0,1.328,0.201,2.534,0.443,3.701
	c-1.127,0.402-2.092,0.845-3.178,1.408c-1.408,0.684-2.615,0.966-3.5,0.925C11.743,22.807,13.513,19.87,15.847,18.944"/>
<path fill="#FFFFFF" d="M16.893,20.071c1.447,0.885,3.419,0.081,3.901-0.482c1.046-1.248,1.368-2.695,0.121-6.276
	c1.006-0.402,2.132-0.644,3.379-0.764c-1.77,1.689-1.77,3.942-1.971,5.793c-0.161,1.448,0.04,2.897,0.121,4.345
	c0.081,1.77,0.362,3.5,0.563,5.229c0.282,1.933,0.523,3.821,0.766,5.754c0.362,3.058,0.885,6.478,1.648,7.765
	c-1.046-0.08-2.212-1.246-3.7-4.787c-0.523-1.408-1.086-2.978-1.609-4.386c-0.523-1.489-0.925-2.855-1.448-4.346
	C17.777,25.341,17.094,23.048,16.893,20.071"/>
<path fill="#FFFFFF" d="M10.013,10.094c1.891,0,2.574,1.046,3.259,2.333c0.765,1.368,1.811,3.54,2.977,5.672
	c1.086,2.333,2.776,1.689,3.702,1.207c1.448-0.724,1.287-3.058-0.322-7.242C18.422,8.926,16.33,6.19,13.353,6.19
	c-3.018,0-5.632,2.736-6.759,6.92C7.237,12.025,8.163,10.295,10.013,10.094"/>
<path d="M18.302,22.163c0.039,0.081,0.079,0.201,0.12,0.322c0.04,0.282,0.04,0.603,0.161,0.925c0.12,0.241,0.201,0.402,0.402,0.604
	c0.362,0.281,1.328,0.764,1.529,0.844c0.2,0.082,0.401,0.162,0.522,0.283c0.322,0.2,0.725,0.765,1.086,1.246
	c0.121,0.121,0.322,0.281,0.201,0.522s-0.322,0.202-0.483,0.161c-0.2-0.04-0.321-0.12-0.481-0.12
	c-0.202,0.28-0.765,0.321-1.167-0.041c-0.121-0.12-0.241-0.281-0.282-0.442c-0.081-0.32,0-0.604,0.081-0.764
	c-0.121-0.081-0.242-0.161-0.362-0.242c0.161,0.362,0.161,0.764,0.281,1.126c0.161,0.402,0.604,0.685,0.885,0.845
	c0.161,0.08,0.402,0.121,0.563,0.121s0.441-0.08,0.643-0.08c0.161,0.039,0.282,0.08,0.282,0.361c0.08,0.482,0.08,0.966,0.121,1.207
	c0,0.241,0.08,0.482-0.161,0.441c-0.242-0.039-0.402-0.2-0.482-0.441c-0.04-0.201-0.08-0.441-0.08-0.684c0-0.041,0-0.121,0-0.201
	c-0.806,0.201-1.852-0.322-2.333-1.248c-0.201-0.442-0.241-0.926-0.362-1.407c-0.04-0.161-0.04-0.282-0.081-0.442
	c-0.161-0.121-0.362-0.242-0.523-0.402c-0.12-0.201-0.24-0.402-0.321-0.644c-0.121-0.241-0.161-0.443-0.201-0.724
	c-0.04-0.242-0.081-0.563-0.121-0.885C17.697,22.123,18.14,21.921,18.302,22.163 M20.714,25.704c-0.2,0.361-0.321,0.764,0.201,0.805
	c0-0.121,0.081-0.242,0.282-0.281C20.996,25.985,20.835,25.744,20.714,25.704z"/>
<path fill="#FFFFFF" d="M40.548,12.628c0.604-1.005,1.007-1.689,2.333-1.77c1.569,0,3.019,2.052,3.862,4.626
	c0.161,0.402,0.483,2.052,0.443,2.897c-0.041,0.965-0.161,1.891-0.322,2.816c-0.282,1.569-0.845,3.218-1.69,4.665
	c-0.401,0.726-0.885,1.328-1.447,1.973c-0.886,0.885-1.689,1.448-2.494,1.609c-1.207,0.281-2.293-0.201-2.696-0.846
	c1.167-0.201,2.293-0.966,3.339-2.533c0.685,0.039,1.046,0.119,1.69,0.119c0.401,0.041,0.764-0.201,0.563-0.644
	c-0.2-0.401-0.765-1.126-1.247-1.811c0.402-1.086,0.563-2.253,0.563-3.782c0-0.523-0.04-1.046-0.121-1.569
	C42.962,15.444,41.594,13.473,40.548,12.628"/>
<path fill="#FFFFFF" d="M37.25,18.944c-0.121,0.201-0.201,0.322-0.321,0.483c0,1.328-0.161,2.534-0.402,3.701
	c1.086,0.402,2.092,0.845,3.178,1.408c1.408,0.684,2.615,0.966,3.46,0.925C41.353,22.807,39.583,19.87,37.25,18.944"/>
<path fill="#FFFFFF" d="M36.203,20.071c-1.488,0.885-3.419,0.081-3.901-0.482c-1.047-1.248-1.368-2.695-0.121-6.276
	c-1.006-0.402-2.133-0.644-3.419-0.764c1.811,1.689,1.77,3.942,1.971,5.793c0.161,1.448,0,2.897-0.081,4.345
	c-0.121,1.77-0.362,3.5-0.604,5.229c-0.241,1.933-0.482,3.821-0.725,5.754c-0.402,3.058-0.885,6.478-1.649,7.765
	c1.047-0.08,2.214-1.246,3.701-4.787c0.523-1.408,1.086-2.978,1.569-4.386c0.563-1.489,0.966-2.855,1.489-4.346
	C35.318,25.341,36.002,23.048,36.203,20.071"/>
<path fill="#FFFFFF" d="M43.083,10.094c-1.891,0-2.614,1.046-3.259,2.333c-0.805,1.368-1.811,3.54-2.977,5.672
	c-1.086,2.333-2.776,1.689-3.742,1.207c-1.408-0.724-1.288-3.058,0.322-7.242c1.206-3.138,3.299-5.874,6.275-5.874
	c3.058,0,5.632,2.736,6.799,6.92C45.819,12.025,44.893,10.295,43.083,10.094"/>
<path d="M34.795,22.163c-0.081,0.081-0.081,0.201-0.121,0.322c-0.08,0.282-0.08,0.603-0.16,0.925
	c-0.121,0.241-0.241,0.402-0.442,0.604c-0.322,0.281-1.328,0.764-1.489,0.844c-0.201,0.082-0.401,0.162-0.563,0.283
	c-0.322,0.2-0.726,0.765-1.086,1.246c-0.121,0.121-0.282,0.281-0.201,0.522c0.161,0.241,0.362,0.202,0.482,0.161
	c0.241-0.04,0.362-0.12,0.483-0.12c0.201,0.28,0.764,0.321,1.207-0.041c0.121-0.12,0.201-0.281,0.242-0.442
	c0.08-0.32,0-0.604-0.041-0.764c0.081-0.081,0.201-0.161,0.322-0.242c-0.121,0.362-0.121,0.764-0.241,1.126
	c-0.161,0.402-0.604,0.685-0.925,0.845c-0.121,0.08-0.362,0.121-0.523,0.121c-0.201,0-0.443-0.08-0.644-0.08
	c-0.201,0.039-0.282,0.08-0.322,0.361c-0.04,0.482-0.081,0.966-0.081,1.207c-0.04,0.241-0.08,0.482,0.161,0.441
	c0.201-0.039,0.361-0.2,0.441-0.441c0.081-0.201,0.081-0.441,0.121-0.684c0-0.041,0-0.121,0-0.201
	c0.806,0.201,1.852-0.322,2.293-1.248c0.241-0.442,0.282-0.926,0.362-1.407c0.04-0.161,0.08-0.282,0.121-0.442
	c0.161-0.121,0.362-0.242,0.482-0.402c0.161-0.201,0.281-0.402,0.362-0.644c0.08-0.241,0.12-0.443,0.201-0.724
	c0.04-0.242,0.081-0.563,0.081-0.885C35.358,22.123,34.956,21.921,34.795,22.163 M32.381,25.704c0.201,0.361,0.282,0.764-0.2,0.805
	c-0.04-0.121-0.08-0.242-0.282-0.281C32.06,25.985,32.261,25.744,32.381,25.704z"/>
<path fill="#FFFFFF" d="M26.548,41.435c-0.16,0-0.321-0.041-0.482-0.242c-0.161-0.241-0.281-0.685-0.362-0.885
	c-0.322-1.127-0.442-1.892-0.644-3.019c-0.161-0.845-0.322-1.729-0.442-2.574c-0.403-3.018-0.725-5.713-1.046-8.409
	c-0.282-2.373-0.523-4.787-0.483-7.441c0.041-4.225,1.288-6.316,3.46-6.316c2.173,0,3.421,2.092,3.5,6.316
	c0.04,2.655-0.201,5.069-0.482,7.441c-0.322,2.696-0.685,5.393-1.046,8.409c-0.121,0.845-0.322,1.729-0.442,2.574
	c-0.201,1.127-0.322,1.892-0.684,3.019c-0.04,0.2-0.161,0.644-0.322,0.885C26.91,41.394,26.668,41.435,26.548,41.435"/>
<g>
	<path d="M241.275,3.928c0,1.691-1.327,3.019-3.055,3.019c-1.71,0-3.073-1.328-3.073-3.019c0-1.655,1.363-2.982,3.073-2.982
		C239.948,0.946,241.275,2.273,241.275,3.928z M235.911,3.928c0,1.328,0.981,2.382,2.327,2.382c1.31,0,2.274-1.055,2.274-2.364
		c0-1.327-0.965-2.4-2.292-2.4C236.892,1.546,235.911,2.62,235.911,3.928z M237.748,5.493h-0.69V2.51
		c0.271-0.055,0.653-0.091,1.145-0.091c0.563,0,0.818,0.091,1.037,0.219c0.163,0.127,0.291,0.363,0.291,0.654
		c0,0.328-0.255,0.582-0.619,0.691V4.02c0.292,0.109,0.455,0.328,0.547,0.728c0.09,0.454,0.146,0.636,0.217,0.746h-0.744
		c-0.092-0.109-0.146-0.382-0.237-0.728c-0.055-0.328-0.236-0.473-0.618-0.473h-0.327V5.493z M237.766,3.802h0.326
		c0.382,0,0.692-0.128,0.692-0.437c0-0.272-0.201-0.455-0.637-0.455c-0.183,0-0.31,0.018-0.382,0.036V3.802z"/>
</g>
</svg>
